<?xml version="1.0" encoding="utf-8"?>
<!-- Generator: Adobe Illustrator 22.1.0, SVG Export Plug-In . SVG Version: 6.00 Build 0)  -->
<svg version="1.1" id="Layer_1" xmlns="http://www.w3.org/2000/svg" xmlns:xlink="http://www.w3.org/1999/xlink" x="0px" y="0px"
	 viewBox="0 0 100 25" style="enable-background:new 0 0 100 25;" xml:space="preserve">
<style type="text/css">
	.st0{fill:#4374BA;}
</style>
<g>
	<path d="M21.5,12.7c-0.1-2.4-0.3-5.2-0.3-7.3h-0.1c-0.6,2-1.3,4.1-2.1,6.4L16,20h-1.7l-2.7-8.1c-0.8-2.4-1.5-4.6-2-6.6H9.6
		c-0.1,2.1-0.2,5-0.3,7.5l-0.5,7.3H6.8L7.9,3.2h2.8l2.9,8.2c0.7,2.1,1.3,3.9,1.7,5.7h0.1c0.4-1.7,1-3.6,1.8-5.7l3-8.2H23L24,20.1
		h-2.1L21.5,12.7z"/>
	<path d="M38.5,13.9c0,4.5-3.1,6.5-6.1,6.5c-3.3,0-5.8-2.4-5.8-6.3c0-4.1,2.7-6.5,6-6.5C36.1,7.7,38.5,10.2,38.5,13.9z M28.8,14
		c0,2.7,1.5,4.7,3.7,4.7c2.1,0,3.7-2,3.7-4.7c0-2.1-1-4.7-3.6-4.7C30,9.3,28.8,11.7,28.8,14z"/>
	<path d="M42,7.9l2.4,6.8c0.4,1.1,0.7,2.1,1,3.1h0.1c0.3-1,0.6-2,1-3.1l2.4-6.8h2.3l-4.8,12.2h-2.1L39.6,7.9H42z"/>
	<path d="M54.2,14.4c0,3,2,4.2,4.2,4.2c1.6,0,2.5-0.3,3.4-0.6l0.4,1.6c-0.8,0.4-2.1,0.8-4,0.8c-3.7,0-6-2.5-6-6.1s2.2-6.6,5.7-6.6
		c4,0,5,3.5,5,5.7c0,0.5,0,0.8-0.1,1H54.2z M60.7,12.8c0-1.4-0.6-3.6-3.1-3.6c-2.2,0-3.2,2.1-3.4,3.6H60.7z"/>
	<path class="st0" d="M68,5h-5.2V3.2h12.5V5h-5.2v15.1H68V5z"/>
	<path class="st0" d="M91.1,11.5c0,5.8-3.5,8.9-7.9,8.9c-4.5,0-7.6-3.5-7.6-8.6c0-5.4,3.3-8.9,7.9-8.9C88.1,2.9,91.1,6.4,91.1,11.5z
		 M77.9,11.7c0,3.6,2,6.9,5.4,6.9c3.5,0,5.4-3.2,5.4-7c0-3.4-1.8-6.9-5.4-6.9C79.7,4.7,77.9,8,77.9,11.7z"/>
</g>
</svg>
